<svg xmlns="http://www.w3.org/2000/svg" viewBox="0 0 64 64" fill="none">
  <rect width="64" height="64" rx="18" fill="url(#gradient)" />
  <path
    d="M18.5 33.6c0-8.3 6.8-15.1 15.1-15.1 8.3 0 15.1 6.8 15.1 15.1 0 7.4-5.3 13.7-12.5 14.9v-8.8c2.9-1 5-3.8 5-7.1 0-4.1-3.4-7.5-7.5-7.5-4.1 0-7.5 3.4-7.5 7.5 0 3.3 2.1 6.2 5 7.1v8.8c-7.2-1.2-12.7-7.5-12.7-14.9Z"
    fill="rgba(248, 250, 252, 0.92)"
  />
  <path
    d="M28.8 19c-3.5 1.4-6.4 4-8.2 7.3-1.8 3.3-2.2 7.2-1.3 10.8"
    stroke="rgba(248, 250, 252, 0.65)"
    stroke-width="3"
    stroke-linecap="round"
  />
  <path
    d="M35.6 45.1c3.5-1.4 6.4-4 8.2-7.3 1.8-3.3 2.2-7.2 1.3-10.8"
    stroke="rgba(248, 250, 252, 0.55)"
    stroke-width="3"
    stroke-linecap="round"
  />
  <defs>
    <linearGradient id="gradient" x1="9" x2="55" y1="9" y2="55" gradientUnits="userSpaceOnUse">
      <stop stop-color="#0891B2" />
      <stop offset="1" stop-color="#312E81" />
    </linearGradient>
  </defs>
</svg>
